<svg xmlns="http://www.w3.org/2000/svg" viewBox="0 0 450 450"><defs><style>.cls-1{fill:#fff;}.cls-2{fill:#f5f5f5;}.cls-3{fill:#e0e0e0;}.cls-4{fill:#ebebeb;}.cls-5{fill:#263238;}.cls-6{fill:#ff725e;}.cls-7{fill:#455a64;}.cls-8{fill:#fafafa;}.cls-9{fill:#ffbe9d;}.cls-10{fill:#eb996e;}.cls-11{opacity:0.6;}.cls-12{opacity:0.3;}</style></defs><title>Recurso 2</title><g id="Capa_2" data-name="Capa 2"><g id="Capa_2-2" data-name="Capa 2"><rect class="cls-1" width="450" height="450"/><g id="Capa_1-2" data-name="Capa 1"><g id="Background_Complete" data-name="Background Complete"><rect class="cls-2" x="355.61" y="87.9" width="71.26" height="66.11" transform="matrix(0.99, -0.13, 0.13, 0.99, -12.12, 50.22)"/><path class="cls-3" d="M396.39,102a4.92,4.92,0,1,0,5.71,4.23A5,5,0,0,0,396.39,102Z"/><path class="cls-3" d="M417.62,89.53l-59.74,7.53-.3.38h0v.2l0,.23.06.47.12.93.24,1.86.47,3.7.93,7.3,1.8,14.13,3.31,25.85,0,.28.29,0,43.36-5.65,12.11-1.61,3.17-.44.8-.12.26,0-.3,0-.84.09-3.24.38L408,146.5l-13.35,1.65,29.88-3.79a1.33,1.33,0,0,0,0,.18,1.17,1.17,0,0,0,0-.24l-.08-.74-.33-2.9-1.33-11.09-4.9-39.8,0-.28Zm-10.5,33-8.27,12.69L380.12,115.7l-15,35.69-3.16-25.17-1.78-14.13-.92-7.3-.47-3.7-.24-1.86-.12-.93-.06-.47,0-.14,59.11-7.55,5.14,39.31L424,140.56l.41,2.95.11.76v.06Z"/><rect class="cls-2" x="14.33" y="264.81" width="47.03" height="50.69" transform="matrix(0.16, -0.99, 0.99, 0.16, -254.61, 280.7)"/><path class="cls-3" d="M45.18,278.26a3.5,3.5,0,1,0,3,4A3.58,3.58,0,0,0,45.18,278.26Z"/><path class="cls-3" d="M62.18,274l-42.26-6.94-.28.2h0v.15l0,.17-.05.33-.11.66-.22,1.32-.43,2.62-.84,5.17-1.63,10-3,18.3,0,.2.21,0,30.71,4.92,8.58,1.35,2.25.34.57.08.19,0-.21,0-.59-.11-2.28-.4L44.13,311l-9.44-1.57,21.14,3.46a1,1,0,0,0,0,.13.78.78,0,0,0,0-.17l.1-.52.36-2,1.33-7.83,4.71-28.13,0-.2Zm-13.84,20.4-8.2,7-8.82-17.11-17.48,21.3,2.93-17.81,1.64-10,.85-5.17.43-2.62.22-1.32L20,268l.05-.33,0-.1,41.83,6.8-4.44,27.84-1.24,7.89-.32,2.09-.08.54v0Z"/><path class="cls-4" d="M13.37,106.85s-4.27,1.73.65,10.78a119.36,119.36,0,0,0,8.28,13.52s.89,2.11-.9,2.49-5.75-.15-6.49,2.07.94,4.4,4.34,6.2,10.71,6,11.37,6.39,1.31,1.35.14,1.8-10,1.61-9.23,5.78,11.1,7.62,12.22,8,1.4.86,1.32,1.47-3.09.72-5.6,1.15-5.34,1.37-4.67,3.74,6.84,7.22,21.55,8.28l6.85,0,3.57-5.88c6.88-13,6-20.85,4.37-22.67s-4,.09-5.65,2-3.38,4.4-3.94,4.14-.8-.74-.55-1.9,2.77-11.72-.34-14.61-8.78,4-9.79,4.78-1.48-.32-1.46-1.07.31-9.19.59-13-.61-6.4-3-7-3.92,3.1-5.19,4.42-2.59-.55-2.59-.55a119.27,119.27,0,0,0-7.09-14.18c-5.08-9-8.89-6.17-8.89-6.17"/><path class="cls-3" d="M53.59,180.19c-3.71-6.6-10.1-18.44-15.64-28.58s-10.56-19.3-14.24-25.92l-4.36-7.83-1.18-2.13-.3-.56-.1-.19.12.18.32.55,1.22,2.11c1.06,1.83,2.57,4.5,4.42,7.8,3.71,6.6,8.75,15.76,14.29,25.89s11.91,22,15.59,28.61"/><path class="cls-3" d="M20.44,136.67a2.2,2.2,0,0,1,.48.12l1.28.41c1.08.36,2.55.91,4.17,1.53l4.14,1.62,1.26.48a2.2,2.2,0,0,1,.45.2,2.2,2.2,0,0,1-.48-.12c-.31-.09-.74-.23-1.28-.42-1.08-.38-2.54-.93-4.16-1.56l-4.15-1.59-1.26-.48A2.23,2.23,0,0,1,20.44,136.67Z"/><path class="cls-3" d="M32.68,140.58c-.06,0,.93-3.11,2.19-6.91s2.34-6.86,2.39-6.84-.93,3.11-2.19,6.91S32.73,140.6,32.68,140.58Z"/><path class="cls-3" d="M40.49,156.53a2.34,2.34,0,0,1,.27-.43l.78-1.13c.66-1,1.56-2.28,2.51-3.77s1.76-2.88,2.34-3.88l.69-1.19a2.28,2.28,0,0,1,.27-.43,2.32,2.32,0,0,1-.2.46c-.14.29-.35.71-.63,1.22-.55,1-1.34,2.42-2.29,3.92s-1.87,2.81-2.56,3.75c-.35.47-.63.84-.84,1.09A2.28,2.28,0,0,1,40.49,156.53Z"/><path class="cls-3" d="M28.63,155.43a2,2,0,0,1,.47,0l1.27.07c1.07.07,2.55.17,4.18.3s3.11.26,4.18.37l1.26.14a2,2,0,0,1,.46.08,2,2,0,0,1-.47,0l-1.27-.07c-1.07-.07-2.55-.17-4.18-.3s-3.11-.26-4.18-.37l-1.26-.14A2,2,0,0,1,28.63,155.43Z"/><path class="cls-3" d="M33.74,170.38a3.23,3.23,0,0,1,.6,0l1.63.08c1.37.08,3.27.2,5.36.35s4,.29,5.36.41l1.62.15a3.23,3.23,0,0,1,.59.08,3.23,3.23,0,0,1-.6,0l-1.63-.08c-1.37-.08-3.27-.2-5.36-.35s-4-.29-5.36-.41l-1.62-.15A3.34,3.34,0,0,1,33.74,170.38Z"/><path class="cls-3" d="M48.54,171.32a3.71,3.71,0,0,1,.32-.55l.94-1.47c.79-1.24,1.88-3,3-4.89s2.14-3.7,2.86-5l.84-1.53a3.76,3.76,0,0,1,.33-.55,3.7,3.7,0,0,1-.26.59c-.18.37-.44.91-.78,1.56-.68,1.31-1.65,3.1-2.81,5s-2.26,3.64-3.08,4.86c-.41.61-.75,1.1-1,1.43A3.67,3.67,0,0,1,48.54,171.32Z"/><path class="cls-3" d="M434.43,236.11H334.17a5.06,5.06,0,0,1-5.06-5.06V172.75a5.06,5.06,0,0,1,5.06-5.06H434.43a5.06,5.06,0,0,1,5.06,5.06V231A5.06,5.06,0,0,1,434.43,236.11Z"/><circle class="cls-4" cx="384.3" cy="202.83" r="8.41" transform="translate(-30.86 331.15) rotate(-45)"/><path class="cls-1" d="M382.28,205.29v-5a.32.32,0,0,1,.47-.28l4.43,2.5a.32.32,0,0,1,0,.55l-4.43,2.46A.32.32,0,0,1,382.28,205.29Z"/><path class="cls-1" d="M335.42,228.25v.18h-.83v-.14l.45-.43c.11-.1.13-.17.13-.23s-.07-.16-.21-.16a.32.32,0,0,0-.26.12l-.15-.11a.52.52,0,0,1,.43-.19c.25,0,.4.12.4.32a.45.45,0,0,1-.19.36l-.3.29h.53Z"/><path class="cls-1" d="M335.53,227.69a.13.13,0,1,1,.13.13A.13.13,0,0,1,335.53,227.69Zm0,.61a.13.13,0,1,1,.26,0,.13.13,0,1,1-.26,0Z"/><path class="cls-1" d="M336.32,227.3v1.13h-.21v-1h-.24v-.18h.45Z"/><path class="cls-1" d="M337.55,228.17h-.2v.26h-.2v-.26h-.62V228l.56-.73h.22l-.52.69h.37v-.23h.2V228h.2v.18Z"/><rect class="cls-1" x="339.39" y="227.69" width="85.49" height="0.45"/><rect class="cls-4" x="339.33" y="227.21" width="26.72" height="1.21"/><path class="cls-4" d="M366.9,227.91a1.3,1.3,0,1,1-1.3-1.3A1.3,1.3,0,0,1,366.9,227.91Z"/><path class="cls-1" d="M427,227.9a.38.38,0,0,1-.41.37c-.31,0-.49-.2-.49-.56a.53.53,0,0,1,.55-.6.57.57,0,0,1,.3.07l-.08.16a.38.38,0,0,0-.21-.05c-.21,0-.35.13-.35.39h0a.38.38,0,0,1,.3-.12A.35.35,0,0,1,427,227.9Zm-.2,0c0-.12-.09-.19-.23-.19a.2.2,0,0,0-.23.19c0,.11.08.19.23.19A.19.19,0,0,0,426.83,227.91Z"/><path class="cls-1" d="M427.14,227.51a.13.13,0,1,1,.26,0,.13.13,0,1,1-.26,0Zm0,.61a.13.13,0,1,1,.26,0,.13.13,0,1,1-.26,0Z"/><path class="cls-1" d="M427.53,227.69c0-.37.2-.58.47-.58s.47.21.47.58-.2.58-.47.58S427.53,228.06,427.53,227.69Zm.73,0c0-.27-.11-.4-.26-.4s-.26.13-.26.4.11.4.26.4S428.27,228,428.27,227.69Z"/><path class="cls-1" d="M428.62,227.69c0-.37.2-.58.47-.58s.47.21.47.58-.2.58-.47.58S428.62,228.06,428.62,227.69Zm.73,0c0-.27-.11-.4-.26-.4s-.26.13-.26.4.11.4.26.4S429.35,228,429.35,227.69Z"/><polygon class="cls-1" points="431.41 227.62 430.96 227.62 430.96 226.46 432.11 226.46 432.11 226.91 431.41 226.91 431.41 227.62"/><polygon class="cls-1" points="432.11 229.11 430.96 229.11 430.96 227.96 431.41 227.96 431.41 228.66 432.11 228.66 432.11 229.11"/><polygon class="cls-1" points="433.93 229.11 432.78 229.11 432.78 228.66 433.48 228.66 433.48 227.96 433.93 227.96 433.93 229.11"/><polygon class="cls-1" points="433.93 227.61 433.48 227.61 433.48 226.91 432.78 226.91 432.78 226.46 433.93 226.46 433.93 227.61"/><path class="cls-1" d="M419.35,174.34a18,18,0,0,1,2.33-.13h.13v.13l0,3v.38l-.27-.27-.31-.31-.79-.79h.21l-1.24,1.09-.23.21v-.31c0-.91,0-1.67.07-2.18a3.47,3.47,0,0,1,.07-.77,6,6,0,0,1,.07.86c0,.52.06,1.24.07,2.1l-.23-.1,1.21-1.11.11-.1.1.1.79.79.31.31-.27.11,0-3,.13.13A22.86,22.86,0,0,1,419.35,174.34Z"/><path class="cls-1" d="M427.9,174.71a8.29,8.29,0,0,1-.56.72c-.38.47-1,1.18-1.65,2l-.26.29v-.39c0-.46,0-1,0-1.47v-.14l0,.11-1-1-.27-.26h.37c1,0,1.9.07,2.48.1a7.67,7.67,0,0,1,.88.07s-.41,0-1,.05-1.41.07-2.35.07l.1-.26,1,1,0,0v.21c0,.51,0,1,0,1.47l-.26-.1c.65-.71,1.24-1.3,1.69-1.74S427.87,174.73,427.9,174.71Z"/><path class="cls-1" d="M427.9,174.71c0,.08-.46.36-1.1.63s-1.19.42-1.22.34.46-.36,1.1-.63S427.87,174.63,427.9,174.71Z"/><path class="cls-1" d="M432.07,174.34s.15-.05.42,0a1.64,1.64,0,0,1,1,.59,1.75,1.75,0,0,1,.29,1.67,1.78,1.78,0,0,1-3.37,0,1.75,1.75,0,0,1,.29-1.67,1.64,1.64,0,0,1,1-.59c.27,0,.42,0,.42,0s-.15,0-.39.11a1.65,1.65,0,0,0-.83.61,1.54,1.54,0,0,0-.19,1.44,1.51,1.51,0,0,0,2.82,0,1.54,1.54,0,0,0-.19-1.44,1.64,1.64,0,0,0-.83-.61C432.22,174.38,432.07,174.37,432.07,174.34Z"/><path class="cls-1" d="M432.63,176.69c-.06.06-.42-.2-.81-.59l0,0V176h0c0-.55.07-1,.16-1s.16.45.16,1h0l0-.11C432.43,176.27,432.69,176.63,432.63,176.69Z"/><path class="cls-1" d="M392.09,176.58c0,.09-11.34.16-25.34.16s-25.34-.07-25.34-.16,11.34-.16,25.34-.16S392.09,176.49,392.09,176.58Z"/><circle class="cls-1" cx="337.03" cy="176.58" r="2"/></g><g id="Web"><rect class="cls-1" x="50.84" y="63.67" width="325.45" height="234.27"/><rect class="cls-3" x="50.44" y="63.67" width="325.45" height="17.32"/><path class="cls-5" d="M62,72.64a2.13,2.13,0,1,1-2.12-2.25A2.19,2.19,0,0,1,62,72.64Z"/><path class="cls-5" d="M69.86,72.64a2.13,2.13,0,1,1-2.12-2.25A2.19,2.19,0,0,1,69.86,72.64Z"/><path class="cls-5" d="M77.76,72.64a2.13,2.13,0,1,1-2.12-2.25A2.19,2.19,0,0,1,77.76,72.64Z"/><path class="cls-5" d="M190.76,99.63c0,.12-7.11.22-15.87.22S159,99.75,159,99.63s7.11-.22,15.88-.22S190.76,99.51,190.76,99.63Z"/><path class="cls-5" d="M233,99.63c0,.12-7.11.22-15.87.22s-15.88-.1-15.88-.22,7.11-.22,15.88-.22S233,99.51,233,99.63Z"/><path class="cls-5" d="M275.22,99.63c0,.12-7.11.22-15.87.22s-15.88-.1-15.88-.22,7.11-.22,15.88-.22S275.22,99.51,275.22,99.63Z"/><path class="cls-5" d="M317.82,99.63c0,.12-7.11.22-15.87.22s-15.88-.1-15.88-.22,7.11-.22,15.88-.22S317.82,99.51,317.82,99.63Z"/><path class="cls-5" d="M354.83,105s.27,0,.76-.13a3.51,3.51,0,0,0,1.83-1.19,3.66,3.66,0,0,0,.73-1.45,7.68,7.68,0,0,0,.11-2c-.09-1.41.32-3.24-.89-4.58a3.32,3.32,0,0,0-2.26-1.18c-.91,0-1.91,0-2.92,0l-6.46,0-14.81,0a3.34,3.34,0,0,0-3,1.92,3.87,3.87,0,0,0-.37,1.85q0,1,0,2a7.51,7.51,0,0,0,.12,1.88,3.59,3.59,0,0,0,.83,1.55,3.4,3.4,0,0,0,1.41.91,5.1,5.1,0,0,0,1.66.16l12.09,0,8.15.07,2.22,0,.58,0,.2,0-.2,0-.58,0-2.22,0-8.15.07-12.09,0a5.43,5.43,0,0,1-1.77-.17,3.78,3.78,0,0,1-1.58-1,4,4,0,0,1-.94-1.74,4.27,4.27,0,0,1-.13-1v-1q0-1,0-2a4.34,4.34,0,0,1,.41-2.05,3.75,3.75,0,0,1,3.34-2.17l14.81,0,6.46,0c1,0,2,0,2.94,0a3.62,3.62,0,0,1,2.46,1.31,4,4,0,0,1,.91,2.47q0,1.23,0,2.32a7.74,7.74,0,0,1-.15,2,3.8,3.8,0,0,1-.8,1.5,3.47,3.47,0,0,1-1.93,1.16A2.38,2.38,0,0,1,354.83,105Z"/><path class="cls-3" d="M168.55,181.12H81.06a5.54,5.54,0,0,1-5.54-5.54v-9.14a5.54,5.54,0,0,1,5.54-5.54h87.49a5.54,5.54,0,0,1,5.54,5.54v9.14A5.54,5.54,0,0,1,168.55,181.12Z"/><path class="cls-5" d="M50.44,63.67l325.45-.17h.17v.17c0,70.69,0,150.31,0,234.24v.21h-.18l-325.45,0h-.15v-.15c.09-142.19.15-233.05.15-234.27,0,1.22.06,92.08.15,234.27l-.15-.15,325.45,0-.18.18v0c0-83.93,0-163.56,0-234.24l.17.17Z"/><path class="cls-6" d="M348.14,202.88s0-.41,0-1.19,0-1.95,0-3.47c0-3,0-7.52,0-13.26,0-11.48,0-28-.07-48.4l.13.13-116.64,0h0l.17-.17c0,23.46,0,45.89,0,66.32l-.16-.16,83.91.08,24.09,0,6.42,0h0l-6.39,0-24.06,0-84,.08h-.16v-.16c0-20.43,0-42.86,0-66.32v-.17h.18l116.64,0h.13v.13c0,20.39-.05,37-.07,48.48,0,5.73,0,10.2,0,13.24,0,1.51,0,2.66,0,3.44S348.14,202.88,348.14,202.88Z"/><path class="cls-6" d="M345.61,136.47l-.28.19-.84.53-3.24,2c-2.81,1.75-6.9,4.25-12,7.32C319.17,152.67,305.1,161,289.42,170s-30,16.87-40.44,22.5c-5.21,2.81-9.44,5.07-12.37,6.61l-3.38,1.77-.88.45-.31.14.29-.17.87-.48,3.35-1.83,12.32-6.71c10.39-5.68,24.7-13.61,40.39-22.58s29.77-17.29,39.92-23.38l12-7.23,3.27-2,.85-.5Z"/><path class="cls-6" d="M346.79,202.88c0,.08-25.64-14.57-57.16-32.73s-57-32.94-57-33,25.63,14.57,57.16,32.73S346.83,202.8,346.79,202.88Z"/><path class="cls-5" d="M345.76,235.86c0,.13-25.49.23-56.93.23s-56.94-.1-56.94-.23,25.49-.23,56.94-.23S345.76,235.73,345.76,235.86Z"/><path class="cls-5" d="M345.76,242.76c0,.13-25.49.23-56.93.23s-56.94-.1-56.94-.23,25.49-.23,56.94-.23S345.76,242.63,345.76,242.76Z"/><path class="cls-5" d="M282.68,259.94c0,.12-11.17.21-25,.21s-25-.1-25-.21,11.17-.21,25-.21S282.68,259.83,282.68,259.94Z"/><path class="cls-5" d="M331.33,251.62c0,.12-22.07.21-49.28.21s-49.28-.1-49.28-.21,22.06-.21,49.28-.21S331.33,251.5,331.33,251.62Z"/><path class="cls-5" d="M360.75,272.71s0-.32,0-.93,0-1.52,0-2.71c0-2.39,0-5.9,0-10.45,0-9.08,0-22.26-.06-38.68l.11.11L219,220.11h0l.17-.17c0,18.42,0,36.24,0,52.76l-.16-.16,101.54.08,29.53,0,7.91,0h0l-7.87,0-29.49,0L219,272.87h-.16v-.16c0-16.53,0-34.35,0-52.76v-.17H219l141.72.05h.11v.11c0,16.45,0,29.65-.06,38.75,0,4.53,0,8,0,10.42,0,1.18,0,2.08,0,2.69S360.75,272.71,360.75,272.71Z"/><ellipse class="cls-6" cx="80.69" cy="100.2" rx="7.21" ry="6.89"/><rect class="cls-7" x="27.22" y="183.67" width="50.97" height="35.46"/><path class="cls-5" d="M78.19,183.67c.05.08-11.3,8.14-25.35,18S27.35,219.52,27.3,219.44s11.29-8.14,25.35-18S78.13,183.6,78.19,183.67Z"/><path class="cls-5" d="M78.19,219.13l-.14-.08-.39-.26-1.48-1L70.78,214,53,201.46l-17.7-12.63L30,185l-1.44-1.06-.37-.28-.12-.11.14.08.39.26,1.48,1,5.4,3.77,17.76,12.55,17.7,12.63,5.34,3.86,1.44,1.06.37.28Z"/></g><g id="HTML"><rect class="cls-8" x="69.47" y="262.12" width="135.69" height="77.1"/><path class="cls-5" d="M205.15,339.22s0-.47,0-1.38,0-2.26,0-4c0-3.54,0-8.74,0-15.42,0-13.35,0-32.61-.07-56.28l.13.13-135.68,0h0l.17-.17c0,27.28,0,53.35,0,77.1l-.16-.16,97.61.08,28,0,7.47,0h0l-7.43,0-28,0-97.71.08h-.16v-.16c0-23.75,0-49.83,0-77.1V262h.18l135.68,0h.13v.13c0,23.7-.05,43-.07,56.36,0,6.67,0,11.86,0,15.39,0,1.76,0,3.1,0,4S205.15,339.22,205.15,339.22Z"/><path class="cls-4" d="M124.52,274.7c0,.09-9.22.17-20.59.17s-20.59-.08-20.59-.17,9.22-.17,20.59-.17S124.52,274.6,124.52,274.7Z"/><path class="cls-4" d="M146.07,282.09c0,.09-9.22.17-20.59.17s-20.59-.08-20.59-.17,9.22-.17,20.59-.17S146.07,282,146.07,282.09Z"/><path class="cls-4" d="M190.93,274.7c0,.09-9.22.17-20.59.17s-20.59-.08-20.59-.17,9.22-.17,20.59-.17S190.93,274.6,190.93,274.7Z"/><path class="cls-4" d="M142,274.69a46.27,46.27,0,0,1-5.56.17,46.42,46.42,0,0,1-5.56-.17,46.42,46.42,0,0,1,5.56-.17A46.42,46.42,0,0,1,142,274.69Z"/><path class="cls-4" d="M95.66,282.09a46.27,46.27,0,0,1-5.56.17,46.42,46.42,0,0,1-5.56-.17,46.42,46.42,0,0,1,5.56-.17A46.43,46.43,0,0,1,95.66,282.09Z"/><path class="cls-4" d="M162.1,281.77a42.86,42.86,0,0,1-5.35.17,43,43,0,0,1-5.35-.17,42.85,42.85,0,0,1,5.35-.17A42.86,42.86,0,0,1,162.1,281.77Z"/><path class="cls-4" d="M124.52,291.62c0,.09-9.22.17-20.59.17s-20.59-.07-20.59-.17,9.22-.17,20.59-.17S124.52,291.53,124.52,291.62Z"/><path class="cls-4" d="M146.07,299c0,.09-9.22.17-20.59.17s-20.59-.08-20.59-.17,9.22-.17,20.59-.17S146.07,298.92,146.07,299Z"/><path class="cls-4" d="M190.93,291.62c0,.09-9.22.17-20.59.17s-20.59-.07-20.59-.17,9.22-.17,20.59-.17S190.93,291.53,190.93,291.62Z"/><path class="cls-4" d="M142,291.61a46.27,46.27,0,0,1-5.56.17,46.42,46.42,0,0,1-5.56-.17,46.26,46.26,0,0,1,5.56-.17A46.26,46.26,0,0,1,142,291.61Z"/><path class="cls-4" d="M95.66,299a46.27,46.27,0,0,1-5.56.17,46.42,46.42,0,0,1-5.56-.17,46.26,46.26,0,0,1,5.56-.17A46.12,46.12,0,0,1,95.66,299Z"/><path class="cls-4" d="M162.1,298.7a42.86,42.86,0,0,1-5.35.17,43,43,0,0,1-5.35-.17,43,43,0,0,1,5.35-.17A43,43,0,0,1,162.1,298.7Z"/><path class="cls-4" d="M124.9,321c0,.09-9.22.17-20.59.17s-20.59-.07-20.59-.17,9.22-.17,20.59-.17S124.9,320.87,124.9,321Z"/><path class="cls-4" d="M146.46,328.35c0,.09-9.22.17-20.59.17s-20.59-.08-20.59-.17,9.22-.17,20.59-.17S146.46,328.26,146.46,328.35Z"/><path class="cls-4" d="M191.31,321c0,.09-9.22.17-20.59.17s-20.59-.07-20.59-.17,9.22-.17,20.59-.17S191.31,320.87,191.31,321Z"/><path class="cls-4" d="M142.4,321a46.27,46.27,0,0,1-5.56.17,46.42,46.42,0,0,1-5.56-.17,46.42,46.42,0,0,1,5.56-.17A46.43,46.43,0,0,1,142.4,321Z"/><path class="cls-4" d="M96,328.35a46.27,46.27,0,0,1-5.56.17,46.42,46.42,0,0,1-5.56-.17,46.26,46.26,0,0,1,5.56-.17A46.42,46.42,0,0,1,96,328.35Z"/><path class="cls-4" d="M162.48,328a42.86,42.86,0,0,1-5.35.17,43,43,0,0,1-5.35-.17,43,43,0,0,1,5.35-.17A42.86,42.86,0,0,1,162.48,328Z"/><path class="cls-4" d="M124.52,307.53c0,.09-9.22.17-20.59.17s-20.59-.08-20.59-.17,9.22-.17,20.59-.17S124.52,307.44,124.52,307.53Z"/><path class="cls-4" d="M146.07,314.92c0,.09-9.22.17-20.59.17s-20.59-.08-20.59-.17,9.22-.17,20.59-.17S146.07,314.83,146.07,314.92Z"/><path class="cls-4" d="M190.93,307.53c0,.09-9.22.17-20.59.17s-20.59-.08-20.59-.17,9.22-.17,20.59-.17S190.93,307.44,190.93,307.53Z"/><path class="cls-4" d="M142,307.52a46.27,46.27,0,0,1-5.56.17,46.42,46.42,0,0,1-5.56-.17,46.26,46.26,0,0,1,5.56-.17A46.26,46.26,0,0,1,142,307.52Z"/><path class="cls-4" d="M95.66,314.92a46.27,46.27,0,0,1-5.56.17,46.42,46.42,0,0,1-5.56-.17,46.42,46.42,0,0,1,5.56-.17A46.12,46.12,0,0,1,95.66,314.92Z"/><path class="cls-4" d="M162.1,314.61a42.86,42.86,0,0,1-5.35.17,43,43,0,0,1-5.35-.17,43,43,0,0,1,5.35-.17A43,43,0,0,1,162.1,314.61Z"/><path class="cls-5" d="M117.06,292.2v14.06h-2.61v-6h-7.27v6h-2.61V292.2h2.61V298h7.27V292.2Z"/><path class="cls-5" d="M123.68,294.41H119V292.2H131v2.21H126.3v11.85h-2.61V294.41Z"/><path class="cls-5" d="M145.84,306.26l0-9.32-4.62,7.71H140l-4.62-7.59v9.2h-2.49V292.2h2.15l5.58,9.32,5.48-9.32h2.15l0,14.06h-2.47Z"/><path class="cls-5" d="M152.1,292.2h2.61v11.85h7.35v2.21h-10Z"/></g><g id="Speech_Bubble" data-name="Speech Bubble"><path class="cls-1" d="M113.17,135.17,106,131.5a18.84,18.84,0,1,0-1,6.68h0Z"/><path class="cls-5" d="M113.17,135.17l-8.18,3.1a.08.08,0,0,1-.11,0,.09.09,0,0,1,0,0h0l.16,0a18.8,18.8,0,0,1-5.44,8.17,17,17,0,0,1-2.41,1.77c-.44.26-.89.54-1.35.79l-1.46.68a19,19,0,0,1-14,.19,18.8,18.8,0,0,1-6.68-4.32,19.22,19.22,0,0,1-4.44-7.12,18.62,18.62,0,0,1-.9-8.7,18.94,18.94,0,0,1,3.21-8.34,19.25,19.25,0,0,1,6.34-5.74,18.6,18.6,0,0,1,7.74-2.36,19.13,19.13,0,0,1,13.54,4.26,20.36,20.36,0,0,1,4.06,4.67A18.74,18.74,0,0,1,106,131.5l0-.07,7.17,3.74-7.24-3.6a.08.08,0,0,1,0-.07,18.7,18.7,0,0,0-2.83-9.24,20.19,20.19,0,0,0-4-4.59,18.88,18.88,0,0,0-13.35-4.16,18.32,18.32,0,0,0-7.61,2.34,18.94,18.94,0,0,0-6.23,5.65,18.63,18.63,0,0,0-3.15,8.19,18.3,18.3,0,0,0,.88,8.55,18.93,18.93,0,0,0,4.36,7,18.51,18.51,0,0,0,6.56,4.26,18.78,18.78,0,0,0,13.79-.15l1.44-.66c.46-.25.9-.52,1.34-.77a16.77,16.77,0,0,0,2.38-1.74,18.73,18.73,0,0,0,5.43-8,.08.08,0,0,1,.16,0h0l-.11-.08Z"/><path class="cls-5" d="M91.43,136.23a1.92,1.92,0,0,1,.29-.33l.84-.84c.72-.71,1.71-1.67,2.82-2.73l0,0v.14c-1.12-1-2.12-2-2.84-2.68l-.85-.83a1.86,1.86,0,0,1-.29-.32,1.9,1.9,0,0,1,.34.27l.89.78c.74.67,1.76,1.6,2.88,2.64l.08.07-.08.07,0,0c-1.11,1.06-2.12,2-2.86,2.69l-.88.8A1.85,1.85,0,0,1,91.43,136.23Z"/><path class="cls-5" d="M91.43,136.32a.07.07,0,0,1-.05,0h0c-.06-.07,0-.09.29-.44l.84-.85c.73-.72,1.69-1.65,2.71-2.63-1-.94-2-1.84-2.71-2.55l-.85-.83c-.32-.32-.36-.37-.29-.44s.1,0,.45.26l.89.78c.76.68,1.73,1.57,2.76,2.53h0v0l.11.1.14.13-.16.16-.08.08v0h0c-1,1-2,1.92-2.77,2.6l-.88.8C91.57,136.24,91.48,136.32,91.43,136.32Zm3.91-3.83-2.17,2.09,2.19-2.07h0Zm.16-.12v0h0Zm-2.31-2.12,2.15,2,0,0Z"/><path class="cls-5" d="M82.79,128.61a1.92,1.92,0,0,1-.29.33l-.84.84c-.72.71-1.71,1.67-2.82,2.73l0,0v-.14c1.12,1,2.12,2,2.84,2.68l.85.83a1.86,1.86,0,0,1,.29.32,1.88,1.88,0,0,1-.34-.27l-.89-.78c-.74-.67-1.76-1.6-2.88-2.64l-.08-.07.08-.07,0,0c1.11-1.06,2.12-2,2.86-2.69l.88-.8A1.86,1.86,0,0,1,82.79,128.61Z"/><path class="cls-5" d="M82.8,136.32c-.05,0-.14-.07-.4-.29l-.89-.78c-.74-.67-1.72-1.56-2.76-2.52h0v0l-.11-.1-.14-.13.16-.15.08-.08v0h0c1-1,2-1.92,2.77-2.6l.88-.8c.35-.31.39-.34.45-.27s0,.11-.29.44l-.84.85c-.72.71-1.68,1.64-2.71,2.63,1,1,2,1.86,2.71,2.55l.85.83c.32.33.36.37.3.43A.08.08,0,0,1,82.8,136.32Zm-3.93-3.71,2.17,2-2.15-2Zm-.14-.13h0v0Zm.14-.14h0l0,0,2.17-2.09Z"/><path class="cls-5" d="M85,138c-.05,0,.86-2.57,2-5.69s2.16-5.64,2.21-5.62-.86,2.57-2,5.69S85.06,138,85,138Z"/><path class="cls-5" d="M85,138.11h0c-.1,0-.11,0,.51-1.78.38-1.07.9-2.5,1.47-4s1.11-2.93,1.52-4c.67-1.72.69-1.71.79-1.68s.11,0-.51,1.78c-.38,1.08-.9,2.5-1.47,4s-1.11,2.93-1.52,4C85.18,137.92,85.09,138.11,85,138.11Zm3.31-9c-.34.88-.75,2-1.22,3.21s-.87,2.34-1.19,3.23c.34-.88.75-2,1.22-3.21S88,130,88.33,129.15Z"/></g><g id="Floor"><path class="cls-5" d="M413.55,339.22c0,.09-88.15.17-196.87.17s-196.89-.08-196.89-.17,88.14-.17,196.89-.17S413.55,339.13,413.55,339.22Z"/></g><g id="Character"><path class="cls-5" d="M135,116.65a7.87,7.87,0,0,1,6.93-6.59,10.23,10.23,0,0,0,2.68-.3,15.39,15.39,0,0,0,1.93-1.1A5.25,5.25,0,0,1,153,110c1.38,1.76,1.94-.69,5.19,1.24,2.69,1.6,1.29,3.83,1.29,3.83a6,6,0,0,1,6,4.77c.32,1.74,0,3.85,1.32,5,.66.55,1.57.7,2.25,1.22,1.26,1,1.3,2.85,1,4.41s-.77,3.22-.19,4.7c1,2.43,4.41,3.39,4.84,6,.2,1.22-.31,2.67.54,3.57a4.18,4.18,0,0,0,1.27.75,5.5,5.5,0,0,1,.21,9.77c-.49.27-1.08.51-1.26,1s.18,1.2.46,1.76a5.29,5.29,0,0,1-7.52,6.86,8.27,8.27,0,0,1-4.86,3.86,5,5,0,0,1-2.89.08,5.75,5.75,0,0,1-2-1.22c-2.81-2.45-6.76-6.2-7-9.92"/><path class="cls-9" d="M200,160.52,183.1,176c-2.09-.48-27.76-15.83-27.76-15.83l-4.06,19.74s26.27,12.08,33.5,10.61c1.18-.24,3.12-.39,4.34-2,5.78-7.43,18.05-25.82,18.05-25.82Z"/><path class="cls-9" d="M208.1,143.53c-1.11.45-5.09,7.16-5.09,7.16l-1,.05a3.17,3.17,0,0,0-3,3.54c.33,2.8.91,6.24.91,6.24l5.56,2.54,1.65-.35c1.53-.08,3-3.19,4-5.39s-.6-2.63-.6-2.63c0-2.18-1.85-1.75-1.85-1.75a1.9,1.9,0,0,0-2-1.89,57.48,57.48,0,0,0,3-6.11C210.13,143.35,209.21,143.08,208.1,143.53Z"/><path class="cls-10" d="M208.58,152.94a10.31,10.31,0,0,1-.58,1.4,5.41,5.41,0,0,1-.35.7,2.91,2.91,0,0,1-.61.67,2.1,2.1,0,0,1-.9.46,1.36,1.36,0,0,1-1.08-.26,1,1,0,0,1-.32-.49,1.34,1.34,0,0,1,0-.56,5.78,5.78,0,0,1,.29-.95,11.52,11.52,0,0,1,.69-1.51,9.66,9.66,0,0,1,.59-1,1.28,1.28,0,0,1,.26-.32s-.29.5-.71,1.34a13.75,13.75,0,0,0-.63,1.51,5.91,5.91,0,0,0-.26.91.86.86,0,0,0,.26.85,1.16,1.16,0,0,0,.9.21,1.94,1.94,0,0,0,.81-.41,2.82,2.82,0,0,0,.58-.62,5.78,5.78,0,0,0,.36-.66A10.39,10.39,0,0,1,208.58,152.94Z"/><path class="cls-10" d="M210.47,154.38a1.34,1.34,0,0,1-.09.38,9.72,9.72,0,0,1-.37,1,5,5,0,0,1-.84,1.37,2.18,2.18,0,0,1-.77.59,1,1,0,0,1-1.39-1.12,4.65,4.65,0,0,1,.25-.92c.2-.57.41-1.07.6-1.48s.37-.73.49-1a1.27,1.27,0,0,1,.22-.33s-.23.51-.57,1.34c-.17.42-.36.92-.55,1.48a4.7,4.7,0,0,0-.23.88.87.87,0,0,0,.25.82.86.86,0,0,0,.85.08,2,2,0,0,0,.7-.53,5.19,5.19,0,0,0,.85-1.3C210.25,154.9,210.44,154.37,210.47,154.38Z"/><path class="cls-10" d="M211.46,156a2.65,2.65,0,0,1-.22,1,5.32,5.32,0,0,1-.51,1,2.9,2.9,0,0,1-.43.55.86.86,0,0,1-.76.25.73.73,0,0,1-.53-.61,1.87,1.87,0,0,1,0-.71,4.67,4.67,0,0,1,.41-1.09,8.69,8.69,0,0,1,.5-.93,3.51,3.51,0,0,1-.35,1,5.2,5.2,0,0,0-.35,1.06,1.74,1.74,0,0,0,0,.63.52.52,0,0,0,.36.43.66.66,0,0,0,.56-.19,2.93,2.93,0,0,0,.4-.51,6.09,6.09,0,0,0,.54-1C211.34,156.38,211.42,156,211.46,156Z"/><path class="cls-9" d="M202,150.74c1.43-.06,3.54-.06,4.91,0a1.79,1.79,0,0,1-1,2.12,5,5,0,0,1-2.51.36,3.21,3.21,0,0,1-.07,4.76"/><path class="cls-10" d="M203.38,158a4.24,4.24,0,0,0,.8-1.25,3.15,3.15,0,0,0,.17-1.63,3.2,3.2,0,0,0-1-1.81l-.2-.19h.28a5.5,5.5,0,0,0,2.25-.26,1.74,1.74,0,0,0,1.14-2.08l.09.06c-1.43-.11-2.66-.11-3.53-.12h-1a1.51,1.51,0,0,1-.36,0,1.44,1.44,0,0,1,.36,0l1-.05c.87,0,2.1-.05,3.55,0H207l0,.06a1.58,1.58,0,0,1-.13,1.38,2.22,2.22,0,0,1-1.11,1,5.56,5.56,0,0,1-2.34.27l.08-.18a3.34,3.34,0,0,1,1,1.93,3.21,3.21,0,0,1-.22,1.71,3.13,3.13,0,0,1-.61.94A1.17,1.17,0,0,1,203.38,158Z"/><path class="cls-5" d="M169.83,327a1.36,1.36,0,0,0,.25-.56,4,4,0,0,0,.13-1.66,2.15,2.15,0,0,0-.13-.56.7.7,0,0,0-.55-.44.5.5,0,0,0-.41.14.66.66,0,0,0-.17.38,4.12,4.12,0,0,0,0,.7c0,.47,0,.91.11,1.46a.88.88,0,0,0,.57.69,1.76,1.76,0,0,0,.86,0,6.86,6.86,0,0,0,1.52-.45,7,7,0,0,0,.67-.33,2,2,0,0,0,.61-.46.65.65,0,0,0,0-.82.78.78,0,0,0-.73-.18,4.53,4.53,0,0,0-1.08.45,5.88,5.88,0,0,0-1.34,1c-.28.28-.4.46-.38.47a11.72,11.72,0,0,1,1.84-1.23,4.69,4.69,0,0,1,1-.38.49.49,0,0,1,.44.09.33.33,0,0,1,0,.41,1.72,1.72,0,0,1-.51.36,6.84,6.84,0,0,1-.64.31,6.75,6.75,0,0,1-1.44.42,1.43,1.43,0,0,1-.68,0,.51.51,0,0,1-.34-.42c-.06-.44-.08-1-.13-1.41a4.25,4.25,0,0,1,0-.63c0-.18.1-.27.23-.26.3,0,.41.42.46.75A5.85,5.85,0,0,1,169.83,327Z"/><path class="cls-5" d="M197.22,301.18a1.36,1.36,0,0,0,0-.61,4,4,0,0,0-.62-1.55,2.18,2.18,0,0,0-.37-.45.7.7,0,0,0-.69-.16.49.49,0,0,0-.3.31.66.66,0,0,0,0,.41,4.15,4.15,0,0,0,.32.62c.24.4.44.8.74,1.26a.88.88,0,0,0,.82.37,1.76,1.76,0,0,0,.79-.35,6.82,6.82,0,0,0,1.62-1.67,2,2,0,0,0,.34-.69.65.65,0,0,0-.35-.75.78.78,0,0,0-.74.17,4.55,4.55,0,0,0-.78.88,5.86,5.86,0,0,0-.76,1.48,1.52,1.52,0,0,0-.13.59,11.69,11.69,0,0,1,1.1-1.92,4.64,4.64,0,0,1,.75-.79.49.49,0,0,1,.44-.12.33.33,0,0,1,.14.38,1.72,1.72,0,0,1-.3.55,6.94,6.94,0,0,1-.44.56,6.77,6.77,0,0,1-1.11,1,1.44,1.44,0,0,1-.62.29.51.51,0,0,1-.5-.23c-.25-.37-.5-.83-.73-1.21a4.35,4.35,0,0,1-.31-.56c-.06-.17,0-.29.09-.34.28-.12.55.2.74.47A5.85,5.85,0,0,1,197.22,301.18Z"/><polygon class="cls-9" points="178.15 307.46 170.29 324.47 157.62 318.62 165.75 297.56 178.15 307.46"/><path class="cls-7" d="M171.78,323.34l-4.59,8.75s11.74,12.14,10.64,14.86l-27.6-13.24,7.58-17.55Z"/><path class="cls-3" d="M159.23,326.8a1.25,1.25,0,0,0-1.4.91,1.2,1.2,0,0,0,.89,1.39,1.32,1.32,0,0,0,1.47-1,1.25,1.25,0,0,0-1.09-1.34"/><g class="cls-11"><path class="cls-1" d="M150.23,333.7l1.15-2.2,26,13.51s1,1.12.42,1.92Z"/></g><path class="cls-5" d="M167.7,332.16c-.07.13-.77-.13-1.64,0s-1.5.51-1.59.4.48-.8,1.53-.92S167.79,332,167.7,332.16Z"/><path class="cls-5" d="M170,334.74c0,.15-.73.09-1.46.45s-1.15.89-1.28.82.15-.87,1.07-1.29S170.09,334.61,170,334.74Z"/><path class="cls-5" d="M170,339c-.14,0,0-.79.7-1.37s1.47-.56,1.47-.42-.58.35-1.14.83S170.15,339,170,339Z"/><path class="cls-5" d="M169,328.79c-.12.1-.64-.39-1.43-.7s-1.5-.36-1.51-.51.79-.36,1.71,0S169.14,328.71,169,328.79Z"/><path class="cls-5" d="M178.32,313.3l20-49.77s-.47-8.84-2.09-11.63-50.93-19.07-50.93-19.07-12.56-3-20.93,0-14.65,13.49-13.49,19.3S117,262.22,117,262.22l36.26,1.08L173,270.51l-13.31,38.14S166.46,316.09,178.32,313.3Z"/><polygon class="cls-9" points="196.03 279.93 196.5 298.67 182.55 299.01 180.54 276.53 196.03 279.93"/><path class="cls-7" d="M197.33,297l-.25,9.87s15.9,5.71,16.11,8.63l-30.61.31-.94-19.09Z"/><path class="cls-3" d="M187.6,305.64a1.25,1.25,0,0,0-.85,1.44,1.2,1.2,0,0,0,1.42.86,1.32,1.32,0,0,0,.89-1.52,1.25,1.25,0,0,0-1.57-.73"/><g class="cls-11"><path class="cls-1" d="M182.57,315.81l.06-2.48L212,314s1.37.58,1.22,1.54Z"/></g><path class="cls-5" d="M197.57,306.71c0,.15-.75.22-1.48.71s-1.12,1.12-1.25,1.06.08-.92,1-1.5S197.6,306.57,197.57,306.71Z"/><path class="cls-5" d="M200.8,308c0,.14-.61.41-1.11,1s-.64,1.31-.79,1.3-.25-.85.39-1.63S200.79,307.86,200.8,308Z"/><path class="cls-5" d="M202.66,311.83c-.14,0-.35-.71,0-1.53s1.07-1.16,1.14-1-.36.57-.66,1.25S202.81,311.81,202.66,311.83Z"/><path class="cls-5" d="M197.27,303.1c-.06.14-.75-.06-1.59,0s-1.5.34-1.58.21.55-.67,1.54-.73S197.34,303,197.27,303.1Z"/><path class="cls-5" d="M187.89,227.92s8.36-.67,9.29,8.4,1.84,51.4,1.84,51.4l-19.53,1.63-3-43.26L145.3,232.83S182.31,226.76,187.89,227.92Z"/><path class="cls-5" d="M153.43,215.68s5.07,14.22,4.11,15.81-14,8.11-14,8.11l-32.65,12.54a27.36,27.36,0,0,1-3.35-13.53c0-8.19,11.36-22.93,11.36-22.93h34.55Z"/><path class="cls-7" d="M143.76,232.11l.15.08.46.21,1.81.8,6.79,3,23.43,10.08-.11-.15.95,13.66,2.11,29.59v.15h.15l14.23-1.25,3.92-.37,1-.11.35-.05h-.35l-1,.06-3.93.29-14.24,1.12.16.13-2-29.6-1-13.66V246l-.1,0-23.48-10-6.83-2.86-1.83-.75-.48-.19Z"/><path class="cls-7" d="M117.79,233.53a4.76,4.76,0,0,0,.92-.25l2.46-.79a53.61,53.61,0,0,1,8.23-2.08,24.12,24.12,0,0,1,8.42.11,33.94,33.94,0,0,1,3.37,1,4,4,0,0,0-.85-.43,15.08,15.08,0,0,0-2.47-.8,22.63,22.63,0,0,0-8.53-.22,45.77,45.77,0,0,0-8.25,2.19c-1,.37-1.86.68-2.42.9A4.76,4.76,0,0,0,117.79,233.53Z"/><path class="cls-7" d="M122.41,226a23.9,23.9,0,0,1,2.85,0c.88.06,1.93.2,3.09.33s2.44.29,3.76.54a17.49,17.49,0,0,1,6.4,2.37,19.81,19.81,0,0,1,2.22,1.79,2.5,2.5,0,0,0-.47-.61,9.76,9.76,0,0,0-1.6-1.39,16.38,16.38,0,0,0-6.47-2.52c-1.34-.25-2.62-.4-3.79-.52s-2.22-.23-3.11-.25a11.71,11.71,0,0,0-2.11.09A2.48,2.48,0,0,0,122.41,226Z"/><path class="cls-9" d="M154.24,159.64a10.58,10.58,0,0,1,5.42,4.71c2,3.61,1.49,5.39,1,7.52s-1.47,6.36-1.52,6.09S154.24,159.64,154.24,159.64Z"/><polygon class="cls-9" points="154.01 159.64 149.73 157.1 125.6 156.46 133.72 183.12 148.42 192.37 157.13 188.01 158 178.33 154.01 159.64"/><path class="cls-6" d="M154.24,159.64s5.55,17.8,5.42,22.9-2.24,19.57-2,22.43-.75,10.72-4.23,10.72H118.88s-7.8-2.16-8.14-6.85,6-44.79,6-44.79,4.41-6.66,7.26-7.27,8.16-1.78,10.07,4.13,2.54,8.94,6.61,13,9.88,8.66,9.88,8.66,4.69-3.92,4.89-9.22-1.77-13.89-1.77-13.89Z"/><path class="cls-5" d="M149.12,216.06a3.24,3.24,0,0,0,1.37-.72,8.25,8.25,0,0,0,2.31-2.93,16,16,0,0,0,1.18-3.53,6,6,0,0,0,.24-1.52,7,7,0,0,0-.49,1.45,21.78,21.78,0,0,1-1.25,3.43,9.28,9.28,0,0,1-2.15,2.89C149.62,215.76,149.09,216,149.12,216.06Z"/><path class="cls-5" d="M130.84,194a2.69,2.69,0,0,0,.58.49,10.93,10.93,0,0,0,4.74,1.93,10.15,10.15,0,0,0,3.77-.16,12.42,12.42,0,0,0,5.87-3.4,14.48,14.48,0,0,0,1.35-1.57,2.86,2.86,0,0,0,.4-.64c-.05,0-.68.84-1.93,2a12.94,12.94,0,0,1-5.77,3.23,10.57,10.57,0,0,1-6.53-.6C131.73,194.63,130.88,193.94,130.84,194Z"/><path class="cls-5" d="M149.55,215.42c.07.06.55-.48.71-1.33a1.89,1.89,0,0,0-.16-1.5,11.25,11.25,0,0,0-.2,1.43C149.76,214.79,149.46,215.37,149.55,215.42Z"/><g class="cls-12"><path d="M147,191.44a10.06,10.06,0,0,1-3.55,6.79,8.35,8.35,0,0,1-7.39,1.61,7.15,7.15,0,0,1-5-5.49,21.17,21.17,0,0,0,5.51,1.92,10.83,10.83,0,0,0,10.65-5l-.28.3"/></g><g class="cls-12"><path d="M154.22,207.91a7.74,7.74,0,0,1-2.46,7.21,1.66,1.66,0,0,1-1.55.53,18.45,18.45,0,0,0,4-7.9"/></g><path class="cls-6" d="M107.53,183.55l17.41,8.16s7.1-15.7,7.71-17.85,2.53-5.54.56-10-6.91-7-10.19-5.82C115.34,160.73,107.53,183.55,107.53,183.55Z"/><path class="cls-6" d="M158,183.5c.81,0,10.15,4.88,10.15,4.88l5.31-17.6c-7.94-5.29-16-10.79-20.69-12l4,14Z"/><path class="cls-9" d="M114.18,169.52"/><path class="cls-9" d="M123.23,190.61c-3.3,5.42-5.6,8.53-5.6,8.53l29.57,18-3.45,8-38.35-15.78s-3.78-3.89-2.45-8.23l6.11-16.88Z"/><path class="cls-10" d="M110.44,201.89a25.93,25.93,0,0,1,3.54-1.84,25.8,25.8,0,0,1,3.88-.91,9.57,9.57,0,0,0-7.42,2.75Z"/><path class="cls-5" d="M107.53,183.55a1.51,1.51,0,0,1,.35.12l1,.41,3.52,1.56,11.56,5.27,1.41.65-.22.08c2-4.14,3.77-7.85,5-10.52l1.46-3.16.39-.86a1.28,1.28,0,0,1,.16-.29,1.27,1.27,0,0,1-.1.31c-.07.2-.18.5-.34.88-.3.76-.77,1.86-1.36,3.21-1.19,2.7-2.92,6.42-4.92,10.57l-.07.15-.15-.07-1.41-.65-11.51-5.36-3.47-1.66-.94-.47A1.51,1.51,0,0,1,107.53,183.55Z"/><path class="cls-5" d="M156.93,167.58a4.77,4.77,0,0,1,.41.83,18,18,0,0,1,.79,2.39,43.61,43.61,0,0,1,1.2,8.19,57.76,57.76,0,0,1-.08,8.28c-.09,1.06-.21,1.91-.31,2.49a4.87,4.87,0,0,1-.2.9,4.9,4.9,0,0,1,.07-.92c.06-.59.15-1.44.21-2.49a70.87,70.87,0,0,0,0-8.24,50.45,50.45,0,0,0-1.09-8.15,23.93,23.93,0,0,0-.68-2.4A4.82,4.82,0,0,1,156.93,167.58Z"/><path class="cls-9" d="M170.14,222.63l-7.37-3.53L148.37,218l-1.17-.81-3.45,8s3.77,1.8,5.75,2l12.1-.37,6.33.66Z"/><path class="cls-7" d="M160.9,130.25a3.09,3.09,0,0,0,1.3,0,7.67,7.67,0,0,0,5.18-3.35,3.11,3.11,0,0,0,.55-1.18,10.52,10.52,0,0,0-.75,1,8.77,8.77,0,0,1-5,3.24A10.55,10.55,0,0,0,160.9,130.25Z"/><path class="cls-7" d="M159,121.7s.25.39.84.84a7.45,7.45,0,0,0,5.49,1.4,2.76,2.76,0,0,0,1.15-.34,9.54,9.54,0,0,1-7.48-1.9Z"/><path class="cls-7" d="M172.83,164l.12,0a2.44,2.44,0,0,0,.33-.1,4.21,4.21,0,0,0,1.17-.64,4.53,4.53,0,0,0,1.33-1.64,4.41,4.41,0,0,0,.32-2.77,4.57,4.57,0,0,0-.6-1.53,6,6,0,0,0-1.19-1.32,6.05,6.05,0,0,1-1.23-1.33,1.83,1.83,0,0,1-.06-1.75,8.83,8.83,0,0,1,1.21-1.64,6.12,6.12,0,0,0,.63-.91,3.53,3.53,0,0,0,.36-1.09,3.85,3.85,0,0,0-2.1-4,12.54,12.54,0,0,0-2.29-.53,2.62,2.62,0,0,1-1-.41,1.58,1.58,0,0,1-.56-.81,3.21,3.21,0,0,1,.23-2c.26-.64.62-1.25.86-1.9a3.05,3.05,0,0,0,.14-2,3.24,3.24,0,0,0-1.16-1.55,9,9,0,0,0-3.12-1.32,6.82,6.82,0,0,1-2.46-1.12,3.06,3.06,0,0,1-1-1.71,2,2,0,0,1,.12-1.26c.13-.27.25-.38.23-.39a1.08,1.08,0,0,0-.3.36,2,2,0,0,0-.19,1.32,3.17,3.17,0,0,0,1,1.84,6.91,6.91,0,0,0,2.52,1.21,8.85,8.85,0,0,1,3,1.31,3,3,0,0,1,1,1.41,2.74,2.74,0,0,1-.15,1.84c-.23.62-.59,1.21-.87,1.89a3.52,3.52,0,0,0-.24,2.23,1.92,1.92,0,0,0,.68,1,2.94,2.94,0,0,0,1.1.48,12.75,12.75,0,0,1,2.22.51,3.52,3.52,0,0,1,1.9,3.6,3.21,3.21,0,0,1-.32,1,5.78,5.78,0,0,1-.6.86,8.93,8.93,0,0,0-1.24,1.72,2.15,2.15,0,0,0,.08,2,6.22,6.22,0,0,0,1.3,1.4,5.75,5.75,0,0,1,1.15,1.25,4.37,4.37,0,0,1,.59,1.44,4.23,4.23,0,0,1-.26,2.64,4.48,4.48,0,0,1-1.23,1.62A5.73,5.73,0,0,1,172.83,164Z"/><path class="cls-9" d="M134.55,122.38l.06-2.65,16-2.38c4.92-.32,10,4.81,10.13,9.73.12,5.48.06,12.17-.76,16.22-1.63,8.14-8,8.93-8,8.93l-.36,8.13-18.13-.51Z"/><path class="cls-5" d="M158.67,133.11a1.05,1.05,0,0,1-1.06,1,1,1,0,0,1-1-1,1.05,1.05,0,0,1,1.06-1A1,1,0,0,1,158.67,133.11Z"/><path class="cls-5" d="M158.87,130.5c-.14.13-.91-.49-2-.53s-2,.49-2.1.35.08-.31.46-.55a2.89,2.89,0,0,1,1.69-.45,2.77,2.77,0,0,1,1.62.6C158.83,130.19,158.93,130.45,158.87,130.5Z"/><path class="cls-5" d="M148.21,132.69a1.05,1.05,0,0,1-1.06,1,1,1,0,0,1-1-1,1.05,1.05,0,0,1,1.06-1A1,1,0,0,1,148.21,132.69Z"/><path class="cls-5" d="M147.74,130.26c-.14.13-.91-.49-2-.53s-2,.49-2.1.35.08-.31.46-.55a2.88,2.88,0,0,1,1.69-.45,2.77,2.77,0,0,1,1.62.6C147.7,130,147.81,130.21,147.74,130.26Z"/><path class="cls-5" d="M151.51,138.82a7.53,7.53,0,0,1,1.85-.26c.29,0,.57-.06.62-.26a1.47,1.47,0,0,0-.16-.86l-.77-2.23a37.77,37.77,0,0,1-1.68-5.83,37.78,37.78,0,0,1,2.15,5.68l.73,2.25a1.67,1.67,0,0,1,.1,1.14.72.72,0,0,1-.49.4,2,2,0,0,1-.49,0A7.34,7.34,0,0,1,151.51,138.82Z"/><path class="cls-10" d="M152,152.26a21.72,21.72,0,0,1-11.14-3.4s2.54,5.85,11,5.44Z"/><path class="cls-10" d="M150.92,141.52a2,2,0,0,0-1.8-.83,1.86,1.86,0,0,0-1.31.64,1.18,1.18,0,0,0-.14,1.34,1.37,1.37,0,0,0,1.47.43,4.28,4.28,0,0,0,1.48-.8,1.26,1.26,0,0,0,.34-.32.38.38,0,0,0,0-.42"/><path class="cls-5" d="M148.15,139.47c.18,0,.14,1.22,1.15,2.14s2.33.83,2.33,1-.3.23-.85.22a3.06,3.06,0,0,1-1.95-.77,2.66,2.66,0,0,1-.89-1.79C147.91,139.75,148.06,139.45,148.15,139.47Z"/><path class="cls-5" d="M148.21,125.84c-.12.3-1.25.11-2.58.22s-2.42.42-2.59.14.12-.42.57-.7a4.5,4.5,0,0,1,3.94-.27C148,125.45,148.27,125.7,148.21,125.84Z"/><path class="cls-5" d="M158.58,127.21c-.21.25-1,0-1.91-.1s-1.74.1-1.91-.17.06-.39.42-.62a2.78,2.78,0,0,1,3.08.22C158.58,126.82,158.68,127.09,158.58,127.21Z"/><path class="cls-5" d="M162.85,117.16c-1.32,2.87-4.28,7.13-7.42,7.44a9.27,9.27,0,0,1-8.25-3.71c-.53,2.32-3.15,3.51-5.51,3.84a9.36,9.36,0,0,1-5-.45,5,5,0,0,1-3.07-3.73c-.21-1.67,2.25-5.71,3.91-6"/><path class="cls-5" d="M137.28,159a6.46,6.46,0,0,1-4.73,5.73,4.58,4.58,0,0,1-8.86,1.78A5.47,5.47,0,0,0,123,165c-.8-1-2.37-.82-3.6-1.21-2.22-.72-3.18-3.44-2.93-5.76a5.42,5.42,0,0,0,.07-1.37,6.11,6.11,0,0,0-1.41-2.41c-2.23-3.16-1.3-7.76,1.17-10.74.83-1,1.87-2,1.79-3.32a6.94,6.94,0,0,0-.7-2,5.85,5.85,0,0,1,1.58-6.39,1.85,1.85,0,0,0,.68-.81,1.8,1.8,0,0,0,0-.68,6.84,6.84,0,0,1,5.78-7.31,1.71,1.71,0,0,0,.6-.14c.53-.27.54-1,.61-1.59a10.94,10.94,0,0,1,2.58-5.49c3.31-2.83,6.51-.53,7.66.55,0,0,2.26,11.23,1.83,13.32s-2,7.3-1.37,9.67,1.61,7.22.65,9.35S137.28,159,137.28,159Z"/><path class="cls-7" d="M124.9,122.93s.14.14.44.35a11.24,11.24,0,0,0,1.31.79,16.06,16.06,0,0,0,9.83,1.61,11.17,11.17,0,0,0,1.49-.33,1.75,1.75,0,0,0,.53-.2c0-.06-.79.14-2.05.28a18.11,18.11,0,0,1-9.69-1.59C125.6,123.31,124.93,122.88,124.9,122.93Z"/><path class="cls-7" d="M123.82,123.73a2.71,2.71,0,0,0,.24.67,5.93,5.93,0,0,0,.36.75,9.7,9.7,0,0,0,.55,1,14.64,14.64,0,0,0,1.77,2.26,15.59,15.59,0,0,0,5.84,3.85,14.67,14.67,0,0,0,2.78.73,10,10,0,0,0,1.1.13,5.92,5.92,0,0,0,.83,0,2.78,2.78,0,0,0,.71,0c0-.07-1-.05-2.59-.37a16.2,16.2,0,0,1-2.71-.79,16.41,16.41,0,0,1-5.73-3.78,16.21,16.21,0,0,1-1.8-2.18C124.27,124.64,123.89,123.7,123.82,123.73Z"/><path class="cls-7" d="M129.69,165.43s-.14,0-.39,0a1.76,1.76,0,0,1-.94-.56,2.42,2.42,0,0,1-.61-1.61,7.85,7.85,0,0,1,.42-2.33,5.06,5.06,0,0,0,.18-3,8.61,8.61,0,0,0-2-2.76,5.37,5.37,0,0,1-1-1.45,2,2,0,0,1,.05-1.69,3.84,3.84,0,0,1,1.27-1.35c.53-.38,1.11-.72,1.67-1.14a3.63,3.63,0,0,0,1.34-1.6,2.48,2.48,0,0,0-.21-2c-.63-1.17-1.62-2-1.86-3.13a3.8,3.8,0,0,1,.83-3,13.32,13.32,0,0,1,2-2.11,13.65,13.65,0,0,0,1.65-1.78,5.37,5.37,0,0,0,.86-1.63,3.34,3.34,0,0,0,.13-1.16,1.57,1.57,0,0,0-.07-.4,4.27,4.27,0,0,1-.19,1.51,8.32,8.32,0,0,1-2.55,3.26,13.23,13.23,0,0,0-2,2.12,5.61,5.61,0,0,0-.79,1.47,3.24,3.24,0,0,0-.12,1.78c.27,1.26,1.3,2.13,1.87,3.22a2.13,2.13,0,0,1,.19,1.75,3.31,3.31,0,0,1-1.22,1.44c-.54.4-1.12.74-1.67,1.14a4.16,4.16,0,0,0-1.38,1.48,2.37,2.37,0,0,0-.05,2,5.65,5.65,0,0,0,1,1.54,8.49,8.49,0,0,1,1.93,2.64,4.86,4.86,0,0,1-.14,2.79,7.83,7.83,0,0,0-.38,2.4,2.53,2.53,0,0,0,.71,1.69,1.76,1.76,0,0,0,1,.54A1,1,0,0,0,129.69,165.43Z"/><path class="cls-3" d="M211.63,194.23l-41.49.34a2.6,2.6,0,0,0-2.83,2l-4.53,30.24H141.4a1.25,1.25,0,1,0,0,2.49h68.25l4.67-31.91A2.72,2.72,0,0,0,211.63,194.23Z"/><path class="cls-5" d="M211.63,194.23a2.19,2.19,0,0,1,.65.06,2.74,2.74,0,0,1,2.1,2.37,7.7,7.7,0,0,1-.15,1.71l-.6,4.21-3.85,26.71,0,.11h-.11l-66.22,0h-1.78a1.72,1.72,0,0,1-.94-.18,1.41,1.41,0,0,1,0-2.47,1.73,1.73,0,0,1,.93-.18h21.12l-.16.14,4.52-30a2.35,2.35,0,0,1,.77-1.58,3.09,3.09,0,0,1,1.59-.7,13.8,13.8,0,0,1,1.67-.06h1.63l6.25,0,11.1-.07,15.8-.08h5.69l-.37,0-1.09,0-4.23.06-15.8.18-11.1.11-6.25.06-1.63,0a13.53,13.53,0,0,0-1.63.06,2.81,2.81,0,0,0-1.45.64,2.07,2.07,0,0,0-.67,1.42l-4.48,30,0,.14H141.65a1.4,1.4,0,0,0-.77.13,1.08,1.08,0,0,0,0,1.89,1.39,1.39,0,0,0,.78.14h1.78l66.22,0-.13.11,4-26.69.63-4.21a7.7,7.7,0,0,0,.17-1.68,2.66,2.66,0,0,0-.48-1.29,2.72,2.72,0,0,0-1.53-1.06A5.46,5.46,0,0,0,211.63,194.23Z"/><circle class="cls-1" cx="189.12" cy="211.36" r="2.6"/><path class="cls-5" d="M164.45,229c.06,0,1.38-7.69,2.95-17.2s2.8-17.22,2.74-17.23-1.38,7.69-2.95,17.2S164.39,229,164.45,229Z"/></g><g id="Picture"><path class="cls-5" d="M277,173.39s0-.39,0-1.12,0-1.82,0-3.23c0-2.83,0-7,0-12.26,0-10.55,0-25.63-.07-43.79l.14.14-67.62,0h0l.17-.17c0,22,0,42.65,0,60.4l-.15-.15,48.92.07,13.8,0,3.65,0h0l-3.62,0-13.76,0-49,.07h-.15v-.15c0-17.75,0-38.43,0-60.4v-.17h.17l67.62,0h.14V113c0,18.19-.06,33.3-.07,43.88,0,5.27,0,9.4,0,12.23,0,1.4,0,2.47,0,3.21S277,173.39,277,173.39Z"/><rect class="cls-6" x="213.76" y="116.43" width="57.7" height="53.53"/><g class="cls-12"><path d="M248.67,128.49a4,4,0,1,0,4.15,4A4.07,4.07,0,0,0,248.67,128.49Z"/><path d="M267,120.63l-48.75,0-.28.27h0v3q0,1.52,0,3,0,3,0,6c0,3.93,0,7.79,0,11.54,0,7.5,0,14.59,0,21.11v.23h.24l35.4-.12,9.89-.06,2.59,0h-.05l-2.64,0-9.94-.06-10.89,0H267a1.06,1.06,0,0,0,0,.15.9.9,0,0,0,0-.19c0-.15,0-.35,0-.6q0-.84,0-2.37c0-2.11,0-5.16.06-9,0-7.85.07-19,.12-32.47v-.23Zm-11.8,25.45-7.93,9.35L234.2,137.83,218.48,165c0-6.37,0-13.26,0-20.54,0-3.75,0-7.6,0-11.54q0-3,0-6,0-1.5,0-3v-2.78l48.25,0c0,13.27.09,24.32.12,32.1,0,3.9,0,7,.06,9.09q0,1.55,0,2.41c0,.26,0,.46,0,.62v.05Z"/></g><rect class="cls-5" x="207.58" y="110.77" width="3.54" height="3.54"/><rect class="cls-5" x="274.64" y="110.77" width="3.54" height="3.54"/><rect class="cls-5" x="274.64" y="171.04" width="3.54" height="3.54"/><rect class="cls-5" x="208.08" y="171.04" width="3.54" height="3.54"/><rect class="cls-5" x="208.08" y="141.25" width="3.54" height="3.54"/><rect class="cls-5" x="240.96" y="171.62" width="3.54" height="3.54"/><rect class="cls-5" x="275.21" y="139.48" width="3.54" height="3.54"/><rect class="cls-5" x="240.97" y="111.09" width="3.54" height="3.54"/></g><g id="Plant"><path class="cls-5" d="M380.33,277.34c-.06.08-.6-.24-1.19-.72s-1-.93-1-1,.6.24,1.2.72S380.39,277.26,380.33,277.34Z"/><path class="cls-7" d="M396.59,253a18.79,18.79,0,0,0-.55-6.76,6.66,6.66,0,0,0-4.61-4.6c-2.54-.53-5.14,1.08-6.57,3.25a18.7,18.7,0,0,0-2.33,7.36,260,260,0,0,0-3.19,53.43l10.39,1.46C394.3,288.52,395.76,272.22,396.59,253Z"/><path class="cls-5" d="M390,241.6a.62.62,0,0,1,0,.17l-.17.47-.69,1.8c-.15.39-.34.81-.49,1.3l-.5,1.57-.58,1.81-.54,2.06a90.45,90.45,0,0,0-2,10.29c-.56,3.91-.93,8.24-1.22,12.79-.53,9.11-.61,17.37-.85,23.35-.11,3-.21,5.41-.33,7.08l-.13,1.92,0,.5a.57.57,0,0,1,0,.17.6.6,0,0,1,0-.17c0-.14,0-.3,0-.5q0-.71.06-1.92c.07-1.67.13-4.09.21-7.08.17-6,.21-14.24.74-23.37.29-4.56.67-8.9,1.25-12.81a86,86,0,0,1,2.09-10.31l.56-2.06.61-1.81.54-1.57c.17-.48.37-.9.52-1.29l.76-1.77.21-.46A.59.59,0,0,1,390,241.6Z"/><path class="cls-5" d="M391,241.6a7.45,7.45,0,0,1,1.27,2.15,15.92,15.92,0,0,1,.95,6.72c-.28,5.74-.79,13.66-1.47,22.4s-1.45,16.64-2.06,22.35c-.31,2.86-.57,5.16-.77,6.76l-.24,1.83-.07.48a.55.55,0,0,1,0,.16.55.55,0,0,1,0-.16l0-.48.17-1.84.65-6.77c.55-5.72,1.27-13.62,2-22.35s1.24-16.65,1.58-22.38a16.26,16.26,0,0,0-.82-6.66A14,14,0,0,0,391,241.6Z"/><path class="cls-5" d="M398.16,268.51a11.16,11.16,0,0,1-3.82-1.37,11.16,11.16,0,0,1,3.82,1.37Z"/><path class="cls-5" d="M399.41,257.91a12.39,12.39,0,0,1-3.9,1.75,12.37,12.37,0,0,1,3.9-1.75Z"/><path class="cls-5" d="M398.76,249.27a6.48,6.48,0,0,1-3.07-.21,6.48,6.48,0,0,1,3.07.21Z"/><path class="cls-5" d="M388,243.73c-.09.05-.54-.51-1-1.27s-.79-1.41-.7-1.46.54.51,1,1.27S388.12,243.67,388,243.73Z"/><path class="cls-5" d="M384.49,249a5.93,5.93,0,0,1-2.94-.06,5.93,5.93,0,0,1,2.94.06Z"/><path class="cls-5" d="M381.94,259.41a3.61,3.61,0,0,1-1.55-.43c-.82-.33-1.45-.68-1.41-.77a3.61,3.61,0,0,1,1.55.43C381.35,259,382,259.32,381.94,259.41Z"/><path class="cls-5" d="M381.67,268.21c0,.1-.57.31-1.32.47s-1.38.2-1.4.1.57-.31,1.32-.47S381.65,268.11,381.67,268.21Z"/><path class="cls-5" d="M380.47,282.6c0,.1-.61.3-1.4.44a3,3,0,0,1-1.47.07c0-.1.61-.3,1.4-.44A3,3,0,0,1,380.47,282.6Z"/><path class="cls-5" d="M379.68,290.54c0,.09-.48.46-1.17.83s-1.3.59-1.34.5.48-.46,1.17-.83S379.63,290.45,379.68,290.54Z"/><path class="cls-5" d="M386.17,299.56c-.09.05-.55-.58-1-1.41a4.18,4.18,0,0,1-.7-1.59c.09-.05.55.58,1,1.41A4.2,4.2,0,0,1,386.17,299.56Z"/><path class="cls-5" d="M388,284.58c.07.07-.44.69-1.14,1.37s-1.32,1.18-1.4,1.11.44-.69,1.14-1.37S388,284.5,388,284.58Z"/><path class="cls-5" d="M387.62,276.72c-.08.07-.55-.32-1.05-.86s-.86-1-.78-1.12.55.32,1.05.86S387.7,276.65,387.62,276.72Z"/><path class="cls-5" d="M388.91,266.67c.08.07-.35.67-.95,1.34s-1.15,1.16-1.22,1.09.35-.67.95-1.34S388.83,266.6,388.91,266.67Z"/><path class="cls-5" d="M389.63,259.38c-.07.07-.66-.39-1.32-1s-1.13-1.23-1.06-1.3.66.39,1.32,1S389.71,259.31,389.63,259.38Z"/><path class="cls-5" d="M391.06,249.53a3.64,3.64,0,0,1-.66,1.48c-.45.76-.89,1.34-1,1.28a3.64,3.64,0,0,1,.66-1.48C390.53,250.05,391,249.48,391.06,249.53Z"/><path class="cls-5" d="M393.73,240.4a3.52,3.52,0,0,1-.59,1.48c-.41.77-.82,1.35-.91,1.3a3.52,3.52,0,0,1,.59-1.48C393.24,240.93,393.64,240.35,393.73,240.4Z"/><path class="cls-5" d="M396.77,244.54c0,.09-.37.38-.93.65s-1,.41-1.09.32.37-.38.93-.65S396.73,244.45,396.77,244.54Z"/><path class="cls-5" d="M396.84,277.34a6.34,6.34,0,0,1-3.8-1.62,79.45,79.45,0,0,1,3.8,1.62Z"/><path class="cls-5" d="M395.6,284.29c0,.1-.61.31-1.4.46a3,3,0,0,1-1.47.09c0-.1.61-.31,1.4-.46A3,3,0,0,1,395.6,284.29Z"/><path class="cls-5" d="M394.08,296.2a5.88,5.88,0,0,1-2.58-3.25,410.78,410.78,0,0,0,2.58,3.25Z"/><path class="cls-5" d="M377.37,301.64c-.07-.08.36-.55.94-1.05s1.12-.85,1.18-.77-.36.55-.94,1.05S377.44,301.72,377.37,301.64Z"/><path class="cls-7" d="M372.57,275.65c-.68-2.11-1.95-4.57-4.16-4.61a3.69,3.69,0,0,0-3.12,2.09,7.7,7.7,0,0,0-.84,3.82,99.65,99.65,0,0,0,4.77,27.69h8.12A96.41,96.41,0,0,0,372.57,275.65Z"/><path class="cls-7" d="M357.89,262.35a9,9,0,0,0-8.45-7.22c-3.59.63-5,4.16-5.4,7.78s.7,7.22,1.81,10.69L356.53,307l10.1-1.1C363.43,291,361.59,277.15,357.89,262.35Z"/><path class="cls-5" d="M368.4,271a8.59,8.59,0,0,0-.69,1.15,7.57,7.57,0,0,0-.38,3.59c.16,1.54.33,3.4.59,5.44s.63,4.27,1.09,6.6c.92,4.66,2,8.85,2.61,11.9.33,1.52.58,2.76.74,3.62l.17,1a.18.18,0,1,1-.07,0l-.24-1-.86-3.59c-.72-3-1.8-7.21-2.72-11.88-.46-2.34-.82-4.58-1.06-6.63-.13-1-.21-2-.3-2.92s-.17-1.76-.22-2.54a7.37,7.37,0,0,1,.51-3.67A3.22,3.22,0,0,1,368.4,271Z"/><path class="cls-5" d="M349.59,254.85a13.44,13.44,0,0,0-1.22,1.64,11.53,11.53,0,0,0-1.54,5.28,24.43,24.43,0,0,0,1.25,8.13l2.88,9.76,5.17,17.76,1.52,5.39.4,1.47a2.84,2.84,0,0,1,.11.52,2.87,2.87,0,0,1-.19-.5l-.46-1.45-1.64-5.36-5.27-17.73L347.75,270a24.16,24.16,0,0,1-1.18-8.24,11.33,11.33,0,0,1,1.68-5.34A6.25,6.25,0,0,1,349.59,254.85Z"/><path class="cls-5" d="M364.42,304.83a2.86,2.86,0,0,1-.23-.48c-.13-.32-.35-.8-.58-1.42-.48-1.24-1.1-3.07-1.74-5.36s-1.27-5.06-1.88-8.14l-1.9-10c-.7-3.55-1.48-6.92-2.39-9.92a55.2,55.2,0,0,0-2.94-7.78,41.25,41.25,0,0,0-2.72-4.91c-.35-.57-.66-1-.85-1.27a2.9,2.9,0,0,1-.28-.45,2.84,2.84,0,0,1,.34.41c.21.28.54.68.91,1.23a36.65,36.65,0,0,1,2.84,4.87,52.77,52.77,0,0,1,3,7.79,99.75,99.75,0,0,1,2.43,9.95l1.87,10c.59,3.08,1.19,5.85,1.8,8.14s1.18,4.13,1.62,5.38c.21.63.4,1.11.51,1.44A3,3,0,0,1,364.42,304.83Z"/><path class="cls-5" d="M346,271.93c0,.1-.53.32-1.23.49s-1.29.23-1.31.13.53-.32,1.23-.49S346,271.83,346,271.93Z"/><path class="cls-5" d="M345,265a12.51,12.51,0,0,1-3.41.13A5.87,5.87,0,0,1,345,265Z"/><path class="cls-5" d="M346.09,258.75c-.07.08-.62-.28-1.23-.8s-1.05-1-1-1.08.61.28,1.23.8S346.16,258.67,346.09,258.75Z"/><path class="cls-5" d="M349.17,252.92c.1,0,.07.51.06,1.11s0,1.08-.12,1.1-.27-.48-.25-1.11S349.07,252.9,349.17,252.92Z"/><path class="cls-5" d="M355.46,255.67c.08.06-.16.56-.55,1.11s-.77,1-.86.9.16-.56.55-1.11S355.38,255.61,355.46,255.67Z"/><path class="cls-5" d="M359.55,262.76c0,.1-.48.4-1.17.68s-1.27.43-1.31.33.48-.4,1.17-.68S359.51,262.67,359.55,262.76Z"/><path class="cls-5" d="M362,270.06a4.67,4.67,0,0,1-3.35.76,33,33,0,0,1,3.35-.76Z"/><path class="cls-5" d="M350.65,268c-.1,0,0-.54.16-1.13s.42-1,.51-1,0,.54-.16,1.13S350.75,268,350.65,268Z"/><path class="cls-5" d="M352.24,277.15a3.5,3.5,0,0,1,.46-1.52c.35-.8.7-1.41.8-1.37a3.49,3.49,0,0,1-.46,1.52C352.69,276.58,352.33,277.19,352.24,277.15Z"/><path class="cls-5" d="M348.32,279.66a3.67,3.67,0,0,1-1.45-.32c-.77-.24-1.4-.46-1.38-.57A2.73,2.73,0,0,1,347,279C347.77,279.24,348.36,279.57,348.32,279.66Z"/><path class="cls-5" d="M350.58,287.14c.06.08-.37.49-1,.92s-1.12.7-1.18.62.37-.49,1-.92S350.52,287.05,350.58,287.14Z"/><path class="cls-5" d="M352.39,294.59c0,.1-.51.32-1.19.48s-1.26.22-1.28.12.51-.32,1.19-.48S352.37,294.49,352.39,294.59Z"/><path class="cls-5" d="M362.23,276.29c.05.09-.41.45-1.07.7s-1.25.28-1.27.18.5-.29,1.14-.53S362.17,276.2,362.23,276.29Z"/><path class="cls-5" d="M363.63,287.88c0,.09-.59-.07-1.22-.37s-1.1-.61-1.06-.7.59.07,1.22.37S363.68,287.78,363.63,287.88Z"/><path class="cls-5" d="M366.11,296.17a3.84,3.84,0,0,1-1.61-.43c-.85-.33-1.51-.68-1.47-.78a3.84,3.84,0,0,1,1.61.43C365.49,295.73,366.15,296.08,366.11,296.17Z"/><path class="cls-5" d="M352.79,302.67c-.05-.09.61-.54,1.38-1.14s1.36-1.14,1.44-1.07-.41.74-1.21,1.36A3.33,3.33,0,0,1,352.79,302.67Z"/><path class="cls-5" d="M359.35,298.45c-.11,0-.25-.54-.5-1.19s-.52-1.16-.43-1.22.51.39.78,1.09S359.44,298.44,359.35,298.45Z"/><path class="cls-5" d="M357.61,288.48c-.06.08-.48-.12-.95-.45s-.79-.67-.73-.75.48.12.95.45S357.67,288.39,357.61,288.48Z"/><path class="cls-5" d="M372.89,272.84c.06.08-.35.49-.92.91s-1.08.69-1.14.61.35-.49.92-.91S372.83,272.76,372.89,272.84Z"/><path class="cls-5" d="M375.2,279.14c0,.1-.64.23-1.44.15s-1.4-.36-1.37-.45.65,0,1.41.08S375.19,279,375.2,279.14Z"/><path class="cls-5" d="M365.3,280.55c0,.1-.58.31-1.35.36s-1.39-.08-1.39-.18.62-.14,1.36-.19S365.27,280.45,365.3,280.55Z"/><path class="cls-5" d="M366.15,274.6c0,.1-.61.11-1.27-.19s-1-.77-1-.84.53.23,1.13.5S366.16,274.49,366.15,274.6Z"/><path class="cls-5" d="M376,285.9c-.05.09-.67-.2-1.38-.65s-1.24-.88-1.18-1,.67.2,1.38.65S376.1,285.82,376,285.9Z"/><rect class="cls-6" x="347.38" y="303.58" width="52.84" height="9.36"/><polygon class="cls-6" points="351.32 311.09 357.75 339.07 389.24 339.07 396.27 311.09 351.32 311.09"/><path class="cls-5" d="M400.19,313c0,.1-11.92.19-26.62.19s-26.62-.08-26.62-.19,11.92-.19,26.62-.19S400.19,312.85,400.19,313Z"/><path class="cls-5" d="M370.8,280.76c-.09.05-.45-.37-.81-.94s-.58-1.08-.49-1.14.45.37.81.94S370.89,280.7,370.8,280.76Z"/><path class="cls-5" d="M370.82,288.29c-.1,0,0-.67.28-1.42s.53-1.34.63-1.3,0,.67-.28,1.42S370.92,288.33,370.82,288.29Z"/><path class="cls-5" d="M373.4,296.2c-.09,0-.49-.59-.88-1.41a3.85,3.85,0,0,1-.55-1.57c.09,0,.49.59.88,1.41A3.85,3.85,0,0,1,373.4,296.2Z"/><path class="cls-5" d="M367.82,302.57c-.08-.07.24-.56.7-1.09s.91-.92,1-.85-.24.56-.7,1.09S367.9,302.64,367.82,302.57Z"/><path class="cls-5" d="M366.65,291c0,.1-.53.1-1.14,0s-1.09-.28-1.07-.38.53-.1,1.14,0S366.66,290.91,366.65,291Z"/></g></g></g></g></svg>